# xmcd
#
# Track frame offsets:
#	182
#	12062
#	24252
#	35892
#	45365
#	58830
#	67085
#	75732
#	86632
#	99140
#	110487
#	123857
#	134270
#	152597
#	165705
#	178527
#	189210
#	197877
#	209915
#	224145
#	240632
#	253120
#
# Disc length: 3597 seconds
#
# Revision: 0
# Processed by: cddbd v1.5.2PL0 Copyright (c) Steve Scherf et al.
# Submitted via: audiograbber 1.83.01
#
DISCID=350e0b16
DTITLE=Johnny Cash - Reader's Digest Country Classics CD1
DYEAR=1999
DGENRE=Country
TTITLE0=Ring of Fire (1963)
TTITLE1=Understand Your Man (1967)
TTITLE2=I Walk the Line (1964)
TTITLE3=I Got Stripes (1976)
TTITLE4=Don't Think Twice, It's Alright (1965)
TTITLE5=Five Feet High And Rising (1967)
TTITLE6=Guess Things Happen That Way (1971)
TTITLE7=Blistered (1971)
TTITLE8=Folsom Prison Blues (1968)
TTITLE9=San Quentin (1969)
TTITLE10=If I Were A Carpenter (1967)
TTITLE11=Kate (1972)
TTITLE12=One Piece At A Time (1976)
TTITLE13=Man In Black (1972)
TTITLE14=The One On The Right Is On The Left (1966)
TTITLE15=Hey Porter (1970)
TTITLE16=The Rebel - Johnny Yuma (1967)
TTITLE17=Flesh and Blood (1971)
TTITLE18=The Long Black Veil (1968)
TTITLE19=The Baron (1981)
TTITLE20=Any Old Wind That Blows (1973)
TTITLE21=A Boy Named Sue (1969)
EXTD=Track dates supplied
EXTT0=
EXTT1=
EXTT2=
EXTT3=
EXTT4=
EXTT5=
EXTT6=
EXTT7=
EXTT8=
EXTT9=
EXTT10=
EXTT11=
EXTT12=
EXTT13=
EXTT14=
EXTT15=
EXTT16=
EXTT17=
EXTT18=
EXTT19=
EXTT20=
EXTT21=
PLAYORDER=
